<?xml version="1.0" standalone="no"?><!DOCTYPE svg PUBLIC "-//W3C//DTD SVG 1.1//EN" "http://www.w3.org/Graphics/SVG/1.1/DTD/svg11.dtd"><svg t="1621427927834" class="icon" viewBox="0 0 1024 1024" version="1.1" xmlns="http://www.w3.org/2000/svg" p-id="3399" width="200" height="200" xmlns:xlink="http://www.w3.org/1999/xlink"><defs><style type="text/css"></style></defs><path d="M812.88 604.68v37.67c0 20.72-14.93 37.81-34 39.86l-3.84 0.22H566.09l7.45 67.57h44.85c7.86-0.06 14.45 6.26 15.16 14.52s-4.69 15.74-12.43 17.19l-2.73 0.24H405.61c-7.8 0-14.29-6.32-15-14.52s4.6-15.63 12.27-17.16l2.73-0.27h44.85l7.48-67.55H249.07c-19.62 0-35.8-15.83-37.75-35.95l-0.2-4.13v-37.69zM775 229.33c19.62 0 35.8 15.8 37.75 36l0.17 4.09v304.74h-601.8V269.38c0-20.69 14.95-37.8 34-39.83l3.93-0.22H775z" fill="#2983FD" p-id="3400"></path><path d="M377.17 360l4.57 396.35a37.69 37.69 0 0 0 62.36 28l96.43-83.59 98.33 170.31a37.69 37.69 0 0 0 51.48 13.79l41.31-23.85a37.69 37.69 0 0 0 13.8-51.48l-98.33-170.26 120.69-41.74a37.69 37.69 0 0 0 6.93-68L434.09 327.18A37.68 37.68 0 0 0 377.17 360z m0 0" fill="#B3F4FF" p-id="3401"></path><path d="M377.17 360l4.57 396.35a37.69 37.69 0 0 0 62.36 28l96.43-83.59 98.33 170.31a37.69 37.69 0 0 0 51.48 13.79l41.31-23.85a37.69 37.69 0 0 0 13.8-51.48l-98.33-170.26 120.69-41.74a37.69 37.69 0 0 0 6.93-68L434.09 327.18A37.68 37.68 0 0 0 377.17 360z m0 0" fill="#B3F4FF" p-id="3402"></path><path d="M671.56 890.55a38.37 38.37 0 0 1-33.2-19.15l-98-169.7-95.9 83.13a38.23 38.23 0 0 1-24.62 9.35h-0.46a38.25 38.25 0 0 1-38.24-37.82L376.59 360a38.26 38.26 0 0 1 57.79-33.34L775 529a38.26 38.26 0 0 1-7 69.05l-120 41.54 98 169.7a38.27 38.27 0 0 1-14 52.27l-41.31 23.85a38.09 38.09 0 0 1-19.13 5.14zM540.68 699.92l0.35 0.6 98.33 170.31a37.1 37.1 0 0 0 50.69 13.58l41.32-23.85A37.1 37.1 0 0 0 745 809.87L646.28 639l0.65-0.23L767.62 597a37.1 37.1 0 0 0 6.82-67L433.8 327.67A37.11 37.11 0 0 0 377.74 360l4.58 396.35A37.1 37.1 0 0 0 443.73 784z" fill="#FAFFFF" p-id="3403"></path><path d="M793 565.59a37.64 37.64 0 0 0-18.25-36.08L434.09 327.18A37.68 37.68 0 0 0 377.17 360l2.37 205.58zM667.55 674.65H565.63l0.54 7.78h-0.08l0.2 1.8 0.4 5.79h0.24l6.38 57.85 0.23 2.11h44.84c7.51-0.06 13.84 5.69 15 13.4a15.18 15.18 0 0 1-15.18 14.92h-32.93l-17.57-30.43-27.17-47-54.28 47-35.11 30.43H406a15.22 15.22 0 0 1-15.21-15.21 15.58 15.58 0 0 1 12.08-12.83l2.75-0.28h44.84l0.23-2.11 7.25-65.44 0.86-7.78h-78l-0.8-65.07h353l-85.85 29.69z" fill="#52A5FF" p-id="3404"></path><path d="M388.07 773.83l-4.58-396.35a37.68 37.68 0 0 1 56.93-32.83L781.06 547A37.55 37.55 0 0 1 793 558.21a37.61 37.61 0 0 0-18.25-28.7L434.09 327.18A37.68 37.68 0 0 0 377.17 360l4.57 396.35a37.49 37.49 0 0 0 6.51 20.74c-0.1-1.09-0.17-2.15-0.18-3.26z" fill="#FFFFFF" p-id="3405"></path></svg>